<mxfile host="app.diagrams.net" modified="2020-04-29T10:19:28.144Z" agent="5.0 (Windows NT 10.0; Win64; x64) AppleWebKit/537.36 (KHTML, like Gecko) Chrome/81.0.4044.122 Safari/537.36" etag="tmwER-cDVhD5xWktHsxr" version="13.0.1" type="github">
  <diagram id="oFMwJU2f02DcgfCYTC5S" name="Page-1">
    <mxGraphModel dx="868" dy="433" grid="1" gridSize="10" guides="1" tooltips="1" connect="1" arrows="1" fold="1" page="1" pageScale="1" pageWidth="827" pageHeight="1169" math="0" shadow="0">
      <root>
        <mxCell id="0" />
        <mxCell id="1" parent="0" />
        <mxCell id="yZ5Av-zjvGEm6ZmJSkwi-1" value="ALUNO" style="whiteSpace=wrap;html=1;align=center;strokeWidth=2;fontSize=14;fontStyle=1" parent="1" vertex="1">
          <mxGeometry x="120" y="80" width="120" height="80" as="geometry" />
        </mxCell>
        <mxCell id="yZ5Av-zjvGEm6ZmJSkwi-2" value="TAREFA" style="whiteSpace=wrap;html=1;align=center;strokeWidth=2;fontSize=14;fontStyle=1" parent="1" vertex="1">
          <mxGeometry x="480" y="80" width="120" height="80" as="geometry" />
        </mxCell>
        <mxCell id="yZ5Av-zjvGEm6ZmJSkwi-3" value="" style="edgeStyle=entityRelationEdgeStyle;fontSize=12;html=1;endArrow=ERzeroToMany;endFill=1;exitX=1;exitY=0.5;exitDx=0;exitDy=0;startArrow=ERone;startFill=0;strokeWidth=2;" parent="1" source="yZ5Av-zjvGEm6ZmJSkwi-1" target="yZ5Av-zjvGEm6ZmJSkwi-2" edge="1">
          <mxGeometry width="100" height="100" relative="1" as="geometry">
            <mxPoint x="230" y="220" as="sourcePoint" />
            <mxPoint x="330" y="120" as="targetPoint" />
          </mxGeometry>
        </mxCell>
        <mxCell id="yZ5Av-zjvGEm6ZmJSkwi-7" style="edgeStyle=orthogonalEdgeStyle;rounded=0;orthogonalLoop=1;jettySize=auto;html=1;entryX=0.5;entryY=1;entryDx=0;entryDy=0;startArrow=ERone;startFill=0;endArrow=ERzeroToMany;endFill=1;strokeWidth=2;" parent="1" source="yZ5Av-zjvGEm6ZmJSkwi-4" target="yZ5Av-zjvGEm6ZmJSkwi-2" edge="1">
          <mxGeometry relative="1" as="geometry" />
        </mxCell>
        <mxCell id="yZ5Av-zjvGEm6ZmJSkwi-4" value="DISCIPLINA" style="whiteSpace=wrap;html=1;align=center;strokeWidth=2;fontStyle=1;fontSize=14;" parent="1" vertex="1">
          <mxGeometry x="480" y="270" width="120" height="80" as="geometry" />
        </mxCell>
        <mxCell id="yZ5Av-zjvGEm6ZmJSkwi-9" style="edgeStyle=orthogonalEdgeStyle;rounded=0;orthogonalLoop=1;jettySize=auto;html=1;entryX=0;entryY=0.5;entryDx=0;entryDy=0;startArrow=ERone;startFill=0;endArrow=ERoneToMany;endFill=0;strokeWidth=2;" parent="1" source="yZ5Av-zjvGEm6ZmJSkwi-8" target="yZ5Av-zjvGEm6ZmJSkwi-4" edge="1">
          <mxGeometry relative="1" as="geometry" />
        </mxCell>
        <mxCell id="yZ5Av-zjvGEm6ZmJSkwi-8" value="PROFESSOR" style="whiteSpace=wrap;html=1;align=center;strokeWidth=2;fontSize=14;fontStyle=1" parent="1" vertex="1">
          <mxGeometry x="200" y="270" width="120" height="80" as="geometry" />
        </mxCell>
      </root>
    </mxGraphModel>
  </diagram>
</mxfile>
